<?xml version="1.0" encoding="UTF-8"?>
<!-- Created with Inkscape (http://www.inkscape.org/) -->
<svg width="765.12" height="253.28" version="1.1" viewBox="0 0 765.12 253.28" xmlns="http://www.w3.org/2000/svg" xmlns:cc="http://creativecommons.org/ns#" xmlns:dc="http://purl.org/dc/elements/1.1/" xmlns:rdf="http://www.w3.org/1999/02/22-rdf-syntax-ns#">
 <metadata>
  <rdf:RDF>
   <cc:Work rdf:about="">
    <dc:format>image/svg+xml</dc:format>
    <dc:type rdf:resource="http://purl.org/dc/dcmitype/StillImage"/>
    <dc:title/>
   </cc:Work>
  </rdf:RDF>
 </metadata>
 <path d="m499.16 249.28c-1.9022-0.24384-2.9988-1.2191-2.9988-2.6672 0-1.329 0.15792-1.4929 1.4379-1.4929h1.1258l-0.0979 0.61243c-0.47935 2.9976 5.1672 1.9766 7.3529-1.3296 0.5616-0.8495 0.5325-0.94524-0.17878-0.58804-6.8318 3.4309-10.055-3.0213-4.7227-9.4552 2.6809-3.2351 8.6306-4.4465 9.5877-1.9521 0.14925 0.38896 0.31338 0.26396 0.53498-0.4075l0.21122-0.64h1.1915c0.88994 0 1.1709 0.0506 1.1101 0.2-5.4655 13.434-5.5172 13.548-6.8559 15.068-1.7759 2.0169-4.725 3.0327-7.6981 2.6516zm5.8098-6.9909c1.985-0.98123 3.9342-3.7338 4.3459-6.1369 0.77874-4.5462-5.1359-3.8777-7.4681 0.84408-2.1359 4.3243-0.50645 7.0866 3.1223 5.2929zm-147.44 2.3426c-2.0818-0.35286-2.7876-2.0452-1.7804-4.2694 1.0664-2.355 2.797-3.27 7.3252-3.8725 2.7884-0.37104 2.859-0.40198 3.3107-1.4521 1.2618-2.9331-4.4448-2.5169-5.7837 0.42178-0.16592 0.36414-2.5219 0.62552-2.5219 0.27977 0-2.7472 6.218-5.5917 9.4006-4.3004 2.0221 0.82043 2.0132 1.8315-0.0614 6.9324-1.9628 4.826-1.8626 4.3944-0.95723 4.122 0.84963-0.25572 0.8501-0.25464 0.3975 0.92804-0.36718 0.95952-0.41692 0.99196-1.7394 1.134-1.0841 0.11646-1.6582-0.13541-1.7306-0.75923-0.0614-0.52933 0.0374-0.53139-1.093 0.0228-1.4807 0.72596-3.3738 1.0488-4.7662 0.81277zm3.8416-2.2225c1.6887-0.59354 2.9932-1.8913 3.573-3.5547 0.14433-0.41405 0.13064-0.46242-0.10999-0.38805-0.15116 0.0467-1.1749 0.19074-2.2749 0.32003-3.238 0.38061-4.3193 0.97733-4.7985 2.648-0.34523 1.2037 1.5233 1.7082 3.6103 0.97466zm34.948 2.2118c-6.1-1.0026-1.4737-12.357 5.4676-13.42 3.5374-0.54147 5.5313 1.0337 4.9363 3.8997l-0.18666 0.89909h-2.2173v-0.89051c0-4.3002-6.0943-1.7066-7.9404 3.3791-1.6742 4.6124 3.2679 6.1031 6.0417 1.8224l0.51255-0.79099h1.1902c1.3713 0 1.3609-0.0399 0.37029 1.4189-1.8864 2.7778-5.0385 4.1977-8.1744 3.6823zm-80.43-0.2872c-0.4566-0.0555-0.88137-0.15216-0.94392-0.21472-0.0876-0.0876 3.5552-9.2198 6.7013-16.799l0.31547-0.76 3.4587 2e-3c6.9388 2e-3 8.312 0.55616 8.154 3.288-0.11787 2.0387-1.6465 4.4347-3.4265 5.3709-0.59331 0.31203-0.70258 0.43707-0.61158 0.6999 0.4019 1.1611 0.25692 2.3615-0.56698 4.6947-0.92477 2.6188-0.93286 2.6743-0.46302 3.1744 0.45801 0.48754 0.45312 0.48962-1.3073 0.55472l-1.52 0.0562-0.0488-0.58568c-0.0317-0.38003 0.23518-1.4517 0.76-3.052 1.3301-4.056 1.3753-4.0014-3.253-3.9278l-2.8618 0.0455-1.5382 3.7966c-1.0818 2.6702-1.6094 3.7909-1.7782 3.7775-0.132-0.0106-0.61358-0.0646-1.0702-0.12012zm12.51-10.44c2.0419-1.0863 3.2343-3.3947 2.2579-4.371-0.52347-0.52347-1.0212-0.58455-4.3223-0.53035l-2.8644 0.047-0.824 2c-0.4532 1.1-0.94779 2.3114-1.0991 2.692l-0.27512 0.69206 3.1635-0.0521c3.0695-0.0505 3.1873-0.0647 3.9635-0.47767zm101.4 10.386c0.0434-0.11 1.2113-2.972 2.5953-6.36s2.5518-6.25 2.5953-6.36c0.0862-0.21827 2.2835-0.29515 2.2863-0.08 2e-3 0.066-1.1691 3.0164-2.6 6.5566l-2.6016 6.4366-1.1771 3e-3c-0.87818 3e-3 -1.1571-0.0473-1.0981-0.19656zm29.561 0.087c3e-3 -0.0699 1.1779-3.007 2.6112-6.527l2.6059-6.4 1.1488-0.047c0.63185-0.0258 1.1488-0.0125 1.1488 0.0296s-0.0681 0.25566-0.1513 0.47452l-0.15129 0.39794 1.0111-0.47317c2.3485-1.099 5.0038-0.85726 5.849 0.5325 0.77026 1.2666 0.67407 1.6761-1.8469 7.8607l-1.7384 4.2649h-1.0861c-1.3482 0-1.4258 0.49904 0.76301-4.9059 2.4204-5.9767 2.4332-6.4542 0.17315-6.4539-2.8933 0-4.0085 1.2736-6.5166 7.4399l-1.5619 3.84-1.1319 0.047c-0.62254 0.0258-1.1296-0.0101-1.1266-0.08zm-347.38-3.7602c-18.392-28.484 0.10035-68.998 34.56-75.718 43.421-8.4664 78.047 37.714 56.045 74.748-0.91529 1.5407-1.6165 2.4176-1.2173 1.5224 11.33-25.408-2.0566-56.942-28.171-66.362-39.351-14.194-76.415 25.802-60.768 65.574 0.71572 1.8192 0.60971 1.8744-0.44938 0.2342zm519.34-0.72974c-22.051-36.69 11.904-83.011 55.079-75.138 34.802 6.3456 53.721 46.21 35.732 75.292-1.1168 1.8055-1.1972 1.7144-0.40299-0.45681 13.838-37.831-18.155-75.516-56.217-66.219-29.274 7.1498-45.127 40.229-32.765 68.365 0.37995 0.86478-0.41946-0.16851-1.4258-1.8429zm-195.47-10.477c4e-3 -0.11 0.24205-0.776 0.52872-1.48l0.52123-1.28 1.2511-0.0471c0.97392-0.0366 1.2326-2e-3 1.1673 0.16-0.0461 0.11391-0.31829 0.80109-0.60487 1.5271l-0.52105 1.32h-1.175c-0.8373 0-1.1728-0.0575-1.1675-0.2zm-28.407-7.7514c-58.615-0.19829-111.02-1.3697-149.04-3.3315-13.672-0.70544-13.709-0.71024-7.88-1.0152 2.09-0.10933 5.744-0.30043 8.12-0.42469 84.517-4.4198 234.95-4.3776 318.96 0.0895 3.3 0.17547 6.954 0.36491 8.12 0.42097 4.1669 0.20037 3.3909 0.27077-11.16 1.0123-42.148 2.1479-108.9 3.4456-167.12 3.2486zm348.56-6.9027c0-0.10311 0.24837-1.0691 0.55192-2.1467 9.7461-34.597 6.4957-59.216-9.0754-68.738-5.4434-3.3287-11.052-5.1951-27.236-9.0633-11.662-2.7875-18.979-5.4136-23.465-8.4227-9.3894-6.2981-32.388-44.106-63.155-103.83-4.2931-8.3328-9.6078-11.541-19.78-11.939-11.12-0.43512-19.383 4.3807-22.506 13.117-3.2252 9.024-4.6203 16.697-6.0564 33.311-2.1719 25.126-7.293 40.403-16.158 48.198-36.043 31.696-148.44 23.432-199.67-14.681l-2.6318-1.9578-1.2882 0.1067c-7.1126 0.5891-31.104 3.5441-46.328 5.7063-78.953 11.213-168.84 31.901-259.92 59.825-2.552 0.78238-7.1448 2.1842-10.206 3.1152-20.458 6.2215-39.35 14.574-44.223 19.552-4.0033 4.0896-5.4567 10.627-3.4775 15.641 0.083247 0.21094 0.064143 0.2712-0.061386 0.19362-2.4025-1.4848-1.3711-11.158 1.6397-15.377 4.5074-6.3166 22.032-15.288 47.608-24.372 69.657-24.74 137.45-44.011 203.84-57.95 35.584-7.4702 73.648-13.639 111.1-18.005l4.9363-0.57549 1.5437 1.2601c16.354 13.349 39.079 23.353 66.372 29.219 54.383 11.687 116.81 3.9743 126.89-15.677 4.8874-9.5308 6.8768-17.79 8.7632-36.383 2.4047-23.702 6.0634-36.894 12.235-44.116 11.789-13.795 38.595-14.385 51.136-1.1259 2.1266 2.2484 2.6574 3.1881 8.3504 14.781 26.046 53.037 48.027 91.328 55.333 96.388 3.3994 2.3546 10.122 4.965 19.345 7.5121 14.72 4.0652 19.158 5.5482 24.64 8.2347 20.858 10.221 25.593 34.36 13.818 70.448-1.5535 4.761-2.8578 8.2953-2.8578 7.7438zm-267.96-6.3364c-7.1251-1.3473-10.436-5.7004-10.046-13.21 0.13181-2.5393-0.0269-1.7087 3.5392-18.52l3.0292-14.28h2.2c1.2658 0 2.2 0.0634 2.2 0.14986 0 0.0827-1.3312 6.4007-2.9582 14.04-4.0819 19.166-4.2424 20.799-2.3789 24.223 3.0224 5.5533 15.522 5.4241 20.797-0.21492 3.3847-3.6184 3.8218-4.9742 8.0724-25.037l2.7877-13.159 2.2-2e-3c1.5156-2e-3 2.2 0.0542 2.2 0.17748 0 1.0378-6.3606 30.066-6.9778 31.845-3.6679 10.572-13.433 16.109-24.665 13.986zm-108.94-0.39636c-4.9962-1.3526-6.8962-5.2947-5.1043-10.591 1.7562-5.191 5.7487-7.3743 15.919-8.7056 8.2351-1.078 8.6368-1.2443 9.4634-3.9186 3.0127-9.7472-13.904-10.021-17.193-0.27797-0.0833 0.24685-0.3332 0.28-2.1103 0.28h-2.0158l0.10935-0.36c3.87-12.741 26.374-14.813 25.631-2.36-0.0517 0.86611-0.84326 4.9439-2.1798 11.229-1.1543 5.4278-2.0987 10.022-2.0987 10.211 0 1.2058 0.92683 1.5585 2.7067 1.0299 1.0577-0.3141 1.0105-0.41853 0.62643 1.387l-0.3256 1.5306-1.1003 0.28539c-3.8204 0.9909-5.9065-0.0655-5.907-2.9914v-1.3994l-0.94303 0.75936c-4.2245 3.4017-10.998 5.1052-15.477 3.8925zm7.5803-3.4551c6.748-1.2801 11.56-7.0825 11.56-13.939 0-0.0229-0.39565 0.0945-0.87923 0.26083-1.5224 0.52377-3.7477 0.92862-6.5608 1.1936-6.6178 0.62331-8.8002 1.2537-10.861 3.1374-5.5392 5.0625-1.343 10.881 6.7412 9.3473zm28.84 3.5123c-4.2433-0.91464-6.8703-4.2826-6.8776-8.8173-3e-3 -2.1031-0.14522-1.9731 2.1517-1.9731h1.9598l0.0917 1.16c0.68434 8.6604 15.611 8.7643 17.239 0.12 0.57475-3.0518-1.5533-4.5012-8.804-5.996-7.8323-1.6147-10.294-4.6486-8.4182-10.373 3.8176-11.647 23.618-10.991 23.618 0.78299v1.3459h-3.9526l-0.0968-1.2556c-0.58762-7.6201-14.054-7.4994-15.656 0.14032-0.59745 2.8484 1.1409 4.2416 7.3057 5.8546 8.0542 2.1074 10.109 3.6059 10.285 7.5006 0.35279 7.7973-9.1484 13.6-18.845 11.51zm-89.827-1.8704c-0.0529-0.726-0.49049-10.104-0.97238-20.84-0.48187-10.736-0.92231-20.294-0.97872-21.24l-0.10258-1.72h4.5212v0.87366c0 1.0457 1.2587 36.926 1.3184 37.583 0.0306 0.33712 2.4965-4.6517 9.3931-19.004l9.3515-19.461 2.4885 0.0439 2.4885 0.0439 0.96928 19.44 0.96928 19.44 0.5955-1.28c0.32752-0.704 4.3941-9.452 9.0368-19.44l8.4413-18.16 2.274-0.0444c2.7684-0.054 4.0813-3.5957-8.3943 22.644l-10.669 22.44h-4.8649l-0.10194-1.48c-0.0561-0.814-0.49489-9.4-0.9752-19.08-0.4803-9.68-0.89299-17.959-0.9171-18.399-0.0425-0.7753-0.31815-0.22059-9.4803 19.08l-9.4365 19.879h-4.8583zm113.87 0.88509c0.0462-0.2448 2.197-10.399 4.7796-22.564l4.6956-22.119 1.96-2e-3c1.4658-2e-3 1.9582 0.0491 1.9529 0.19872-4e-3 0.11-0.78768 3.836-1.7418 8.28-1.9739 9.1941-1.8973 8.4107-0.72902 7.459 9.3549-7.6205 21.037-4.7894 19.946 4.8339-0.16941 1.4942-4.8597 24.112-5.0368 24.29-0.0373 0.0373-0.93014 0.0474-1.9842 0.0226l-1.9164-0.0451 2.3818-11.12c2.6564-12.402 2.8186-13.575 2.1449-15.511-1.601-4.5997-10.092-4.3149-14.831 0.49738-2.6907 2.7328-3.0399 3.7588-5.8948 17.322l-1.8547 8.8112-1.9781 0.0451-1.9781 0.0451 0.084-0.44507z" stroke-width=".16"/>
</svg>
